<svg width="600" height="400" viewBox="0 0 600 400" fill="none" xmlns="http://www.w3.org/2000/svg">
  <!-- Background Elements -->
  <rect width="600" height="400" rx="20" fill="#F8F9FA" opacity="0.2"/>
  <circle cx="128" cy="80" r="50" fill="#FF4D4D" opacity="0.1"/>
  <circle cx="500" cy="320" r="70" fill="#F9CB28" opacity="0.1"/>
  
  <!-- Email Stack -->
  <g filter="url(#drop_shadow)">
    <!-- Email 3 (Bottom) -->
    <rect x="180" y="180" width="300" height="180" rx="10" fill="white" stroke="#ECECEC" stroke-width="2"/>
    <rect x="200" y="210" width="150" height="15" rx="5" fill="#ECECEC"/>
    <rect x="200" y="240" width="260" height="10" rx="5" fill="#ECECEC"/>
    <rect x="200" y="260" width="260" height="10" rx="5" fill="#ECECEC"/>
    <rect x="200" y="280" width="200" height="10" rx="5" fill="#ECECEC"/>
    <rect x="438" y="320" width="22" height="22" rx="4" fill="#FF4D4D" opacity="0.8"/>
    <path d="M444 331L454 331M449 326V336" stroke="white" stroke-width="2" stroke-linecap="round"/>

    <!-- Email 2 (Middle) -->
    <rect x="160" y="130" width="300" height="180" rx="10" transform="rotate(-5 160 130)" fill="white" stroke="#ECECEC" stroke-width="2"/>
    <rect x="185" y="155" width="150" height="15" rx="5" transform="rotate(-5 185 155)" fill="#ECECEC"/>
    <rect x="181" y="185" width="260" height="10" rx="5" transform="rotate(-5 181 185)" fill="#ECECEC"/>
    <rect x="179" y="205" width="260" height="10" rx="5" transform="rotate(-5 179 205)" fill="#ECECEC"/>
    <rect x="177" y="225" width="200" height="10" rx="5" transform="rotate(-5 177 225)" fill="#ECECEC"/>
    <rect x="408" y="270" width="22" height="22" rx="4" transform="rotate(-5 408 270)" fill="#FF4D4D" opacity="0.8"/>
    <path d="M414 281L424 279M420 274L418 284" stroke="white" stroke-width="2" stroke-linecap="round"/>

    <!-- Email 1 (Top) -->
    <rect x="140" y="80" width="300" height="180" rx="10" transform="rotate(3 140 80)" fill="white" stroke="#ECECEC" stroke-width="2"/>
    <rect x="150" y="110" width="150" height="15" rx="5" transform="rotate(3 150 110)" fill="#ECECEC"/>
    <rect x="152" y="140" width="260" height="10" rx="5" transform="rotate(3 152 140)" fill="#ECECEC"/>
    <rect x="153" y="160" width="260" height="10" rx="5" transform="rotate(3 153 160)" fill="#ECECEC"/>
    <rect x="154" y="180" width="200" height="10" rx="5" transform="rotate(3 154 180)" fill="#ECECEC"/>
    <rect x="390" y="210" width="22" height="22" rx="4" transform="rotate(3 390 210)" fill="#FF4D4D" opacity="0.8"/>
    <path d="M396 221L406 222M401 216L401 226" stroke="white" stroke-width="2" stroke-linecap="round"/>
  </g>

  <!-- Chart overlay -->
  <path d="M100 340C150 280 200 310 250 290C300 270 350 230 400 260C450 290 500 250 550 220" stroke="#FF4D4D" stroke-width="3" stroke-linecap="round" opacity="0.7"/>
  <circle cx="250" cy="290" r="6" fill="#FF4D4D"/>
  <circle cx="350" cy="230" r="6" fill="#FF4D4D"/>
  <circle cx="450" cy="290" r="6" fill="#FF4D4D"/>
  
  <!-- Emoji Rejections -->
  <g filter="url(#emoji_shadow)">
    <circle cx="95" cy="200" r="30" fill="white" stroke="#ECECEC" stroke-width="2"/>
    <text x="95" y="210" font-family="Arial" font-size="30" text-anchor="middle">😢</text>
  </g>
  
  <g filter="url(#emoji_shadow)">
    <circle cx="500" cy="120" r="30" fill="white" stroke="#ECECEC" stroke-width="2"/>
    <text x="500" y="130" font-family="Arial" font-size="30" text-anchor="middle">🤷</text>
  </g>

  <!-- Definitions for filters -->
  <defs>
    <filter id="drop_shadow" x="0" y="0" width="600" height="400" filterUnits="userSpaceOnUse" color-interpolation-filters="sRGB">
      <feFlood flood-opacity="0" result="BackgroundImageFix"/>
      <feColorMatrix in="SourceAlpha" type="matrix" values="0 0 0 0 0 0 0 0 0 0 0 0 0 0 0 0 0 0 127 0" result="hardAlpha"/>
      <feOffset dy="4"/>
      <feGaussianBlur stdDeviation="8"/>
      <feComposite in2="hardAlpha" operator="out"/>
      <feColorMatrix type="matrix" values="0 0 0 0 0 0 0 0 0 0 0 0 0 0 0 0 0 0 0.1 0"/>
      <feBlend mode="normal" in2="BackgroundImageFix" result="effect1_dropShadow"/>
      <feBlend mode="normal" in="SourceGraphic" in2="effect1_dropShadow" result="shape"/>
    </filter>
    <filter id="emoji_shadow" x="0" y="0" width="600" height="400" filterUnits="userSpaceOnUse" color-interpolation-filters="sRGB">
      <feFlood flood-opacity="0" result="BackgroundImageFix"/>
      <feColorMatrix in="SourceAlpha" type="matrix" values="0 0 0 0 0 0 0 0 0 0 0 0 0 0 0 0 0 0 127 0" result="hardAlpha"/>
      <feOffset dy="4"/>
      <feGaussianBlur stdDeviation="4"/>
      <feComposite in2="hardAlpha" operator="out"/>
      <feColorMatrix type="matrix" values="0 0 0 0 0 0 0 0 0 0 0 0 0 0 0 0 0 0 0.1 0"/>
      <feBlend mode="normal" in2="BackgroundImageFix" result="effect1_dropShadow"/>
      <feBlend mode="normal" in="SourceGraphic" in2="effect1_dropShadow" result="shape"/>
    </filter>
  </defs>
</svg> 